<?xml version="1.0" encoding="UTF-8"?>
<svg width="18px" height="18px" viewBox="0 0 18 18" version="1.1" xmlns="http://www.w3.org/2000/svg" xmlns:xlink="http://www.w3.org/1999/xlink">
    <!-- Generator: Sketch 47 (45396) - http://www.bohemiancoding.com/sketch -->
    <title>checked@2x</title>
    <desc>Created with Sketch.</desc>
    <defs></defs>
    <g id="Page-1" stroke="none" stroke-width="1" fill="none" fill-rule="evenodd">
        <g id="UI-assets" transform="translate(-351.000000, -710.000000)" fill="#0082D4">
            <path d="M357.984375,724.015625 L366.984375,715.015625 L365.578125,713.5625 L357.984375,721.15625 L354.421875,717.59375 L353.015625,719 L357.984375,724.015625 Z M366.984375,710 C367.546878,710 368.023437,710.203124 368.414064,710.609375 C368.804688,711.015626 369,711.484373 369,712.015625 L369,725.984375 C369,726.515628 368.804688,726.984373 368.414064,727.390625 C368.023437,727.796877 367.546878,728 366.984375,728 L353.015625,728 C352.453122,728 351.976564,727.796877 351.585938,727.390625 C351.195311,726.984373 351,726.515628 351,725.984375 L351,712.015625 C351,711.484373 351.195311,711.015626 351.585938,710.609375 C351.976564,710.203124 352.453122,710 353.015625,710 L366.984375,710 Z" id="checked"></path>
        </g>
    </g>
</svg>