<?xml version="1.0" encoding="UTF-8"?>
<svg width="18px" height="18px" viewBox="0 0 18 18" version="1.1" xmlns="http://www.w3.org/2000/svg" xmlns:xlink="http://www.w3.org/1999/xlink">
    <!-- Generator: Sketch 47 (45396) - http://www.bohemiancoding.com/sketch -->
    <title>empty-check@2x</title>
    <desc>Created with Sketch.</desc>
    <defs></defs>
    <g id="Page-1" stroke="none" stroke-width="1" fill="none" fill-rule="evenodd">
        <g id="UI-assets" transform="translate(-351.000000, -650.000000)" fill="#8B9DA7">
            <path d="M366.984375,650 C367.515627,650 367.984374,650.203124 368.390625,650.609375 C368.796876,651.015626 369,651.484373 369,652.015625 L369,665.984375 C369,666.515628 368.796876,666.984373 368.390625,667.390625 C367.984374,667.796877 367.515627,668 366.984375,668 L353.015625,668 C352.484372,668 352.015627,667.796877 351.609375,667.390625 C351.203123,666.984373 351,666.515628 351,665.984375 L351,652.015625 C351,651.484373 351.203123,651.015626 351.609375,650.609375 C352.015627,650.203124 352.484372,650 353.015625,650 L366.984375,650 Z M367.2,651.8 L352.8,651.8 L352.8,666.2 L367.2,666.2 L367.2,651.8 Z" id="empty-check"></path>
        </g>
    </g>
</svg>